<svg id="visual" viewBox="0 0 900 600" width="900" height="600" xmlns="http://www.w3.org/2000/svg" xmlns:xlink="http://www.w3.org/1999/xlink" version="1.1"><path d="M791 600L768.5 593.3C746 586.7 701 573.3 675.5 560C650 546.7 644 533.3 615.5 520C587 506.7 536 493.3 561.5 480C587 466.7 689 453.3 689 440C689 426.7 587 413.3 561.5 400C536 386.7 587 373.3 624.5 360C662 346.7 686 333.3 681.5 320C677 306.7 644 293.3 636.5 280C629 266.7 647 253.3 633.5 240C620 226.7 575 213.3 579.5 200C584 186.7 638 173.3 650 160C662 146.7 632 133.3 612.5 120C593 106.7 584 93.3 597.5 80C611 66.7 647 53.3 672.5 40C698 26.7 713 13.3 720.5 6.7L728 0L900 0L900 6.7C900 13.3 900 26.7 900 40C900 53.3 900 66.7 900 80C900 93.3 900 106.7 900 120C900 133.3 900 146.7 900 160C900 173.3 900 186.7 900 200C900 213.3 900 226.7 900 240C900 253.3 900 266.7 900 280C900 293.3 900 306.7 900 320C900 333.3 900 346.7 900 360C900 373.3 900 386.7 900 400C900 413.3 900 426.7 900 440C900 453.3 900 466.7 900 480C900 493.3 900 506.7 900 520C900 533.3 900 546.7 900 560C900 573.3 900 586.7 900 593.3L900 600Z" fill="#ffffff"></path><path d="M719 600L686 593.3C653 586.7 587 573.3 548 560C509 546.7 497 533.3 483.5 520C470 506.7 455 493.3 479 480C503 466.7 566 453.3 557 440C548 426.7 467 413.3 461 400C455 386.7 524 373.3 554 360C584 346.7 575 333.3 546.5 320C518 306.7 470 293.3 458 280C446 266.7 470 253.3 476 240C482 226.7 470 213.3 495.5 200C521 186.7 584 173.3 587 160C590 146.7 533 133.3 503 120C473 106.7 470 93.3 497 80C524 66.7 581 53.3 596 40C611 26.7 584 13.3 570.5 6.7L557 0L729 0L721.5 6.7C714 13.3 699 26.7 673.5 40C648 53.3 612 66.7 598.5 80C585 93.3 594 106.7 613.5 120C633 133.3 663 146.7 651 160C639 173.3 585 186.7 580.5 200C576 213.3 621 226.7 634.5 240C648 253.3 630 266.7 637.5 280C645 293.3 678 306.7 682.5 320C687 333.3 663 346.7 625.5 360C588 373.3 537 386.7 562.5 400C588 413.3 690 426.7 690 440C690 453.3 588 466.7 562.5 480C537 493.3 588 506.7 616.5 520C645 533.3 651 546.7 676.5 560C702 573.3 747 586.7 769.5 593.3L792 600Z" fill="#e5e5e5"></path><path d="M584 600L566 593.3C548 586.7 512 573.3 476 560C440 546.7 404 533.3 377 520C350 506.7 332 493.3 369.5 480C407 466.7 500 453.3 501.5 440C503 426.7 413 413.3 396.5 400C380 386.7 437 373.3 464 360C491 346.7 488 333.3 464 320C440 306.7 395 293.3 384.5 280C374 266.7 398 253.3 396.5 240C395 226.7 368 213.3 393.5 200C419 186.7 497 173.3 504.5 160C512 146.7 449 133.3 423.5 120C398 106.7 410 93.3 434 80C458 66.7 494 53.3 497 40C500 26.7 470 13.3 455 6.7L440 0L558 0L571.5 6.7C585 13.3 612 26.7 597 40C582 53.3 525 66.7 498 80C471 93.3 474 106.7 504 120C534 133.3 591 146.7 588 160C585 173.3 522 186.7 496.5 200C471 213.3 483 226.7 477 240C471 253.3 447 266.7 459 280C471 293.3 519 306.7 547.5 320C576 333.3 585 346.7 555 360C525 373.3 456 386.7 462 400C468 413.3 549 426.7 558 440C567 453.3 504 466.7 480 480C456 493.3 471 506.7 484.5 520C498 533.3 510 546.7 549 560C588 573.3 654 586.7 687 593.3L720 600Z" fill="#cccccc"></path><path d="M368 600L372.5 593.3C377 586.7 386 573.3 354.5 560C323 546.7 251 533.3 222.5 520C194 506.7 209 493.3 270.5 480C332 466.7 440 453.3 449 440C458 426.7 368 413.3 344 400C320 386.7 362 373.3 378.5 360C395 346.7 386 333.3 362 320C338 306.7 299 293.3 284 280C269 266.7 278 253.3 279.5 240C281 226.7 275 213.3 281 200C287 186.7 305 173.3 297.5 160C290 146.7 257 133.3 258.5 120C260 106.7 296 93.3 323 80C350 66.7 368 53.3 366.5 40C365 26.7 344 13.3 333.5 6.7L323 0L441 0L456 6.7C471 13.3 501 26.7 498 40C495 53.3 459 66.7 435 80C411 93.3 399 106.7 424.5 120C450 133.3 513 146.7 505.5 160C498 173.3 420 186.7 394.5 200C369 213.3 396 226.7 397.5 240C399 253.3 375 266.7 385.5 280C396 293.3 441 306.7 465 320C489 333.3 492 346.7 465 360C438 373.3 381 386.7 397.5 400C414 413.3 504 426.7 502.5 440C501 453.3 408 466.7 370.5 480C333 493.3 351 506.7 378 520C405 533.3 441 546.7 477 560C513 573.3 549 586.7 567 593.3L585 600Z" fill="#cccccc"></path><path d="M62 600L72.5 593.3C83 586.7 104 573.3 105.5 560C107 546.7 89 533.3 83 520C77 506.7 83 493.3 86 480C89 466.7 89 453.3 92 440C95 426.7 101 413.3 93.5 400C86 386.7 65 373.3 74 360C83 346.7 122 333.3 134 320C146 306.7 131 293.3 128 280C125 266.7 134 253.3 138.5 240C143 226.7 143 213.3 144.5 200C146 186.7 149 173.3 129.5 160C110 146.7 68 133.3 71 120C74 106.7 122 93.3 126.5 80C131 66.7 92 53.3 87.5 40C83 26.7 113 13.3 128 6.7L143 0L324 0L334.5 6.7C345 13.3 366 26.7 367.5 40C369 53.3 351 66.7 324 80C297 93.3 261 106.7 259.5 120C258 133.3 291 146.7 298.5 160C306 173.3 288 186.7 282 200C276 213.3 282 226.7 280.5 240C279 253.3 270 266.7 285 280C300 293.3 339 306.7 363 320C387 333.3 396 346.7 379.5 360C363 373.3 321 386.7 345 400C369 413.3 459 426.7 450 440C441 453.3 333 466.7 271.5 480C210 493.3 195 506.7 223.5 520C252 533.3 324 546.7 355.5 560C387 573.3 378 586.7 373.5 593.3L369 600Z" fill="#e5e5e5"></path><path d="M0 600L0 593.3C0 586.7 0 573.3 0 560C0 546.7 0 533.3 0 520C0 506.7 0 493.3 0 480C0 466.7 0 453.3 0 440C0 426.7 0 413.3 0 400C0 386.7 0 373.3 0 360C0 346.7 0 333.3 0 320C0 306.7 0 293.3 0 280C0 266.7 0 253.3 0 240C0 226.7 0 213.3 0 200C0 186.7 0 173.3 0 160C0 146.7 0 133.3 0 120C0 106.7 0 93.3 0 80C0 66.7 0 53.3 0 40C0 26.7 0 13.3 0 6.7L0 0L144 0L129 6.7C114 13.3 84 26.7 88.5 40C93 53.3 132 66.7 127.5 80C123 93.3 75 106.7 72 120C69 133.3 111 146.7 130.5 160C150 173.3 147 186.7 145.5 200C144 213.3 144 226.7 139.5 240C135 253.3 126 266.7 129 280C132 293.3 147 306.7 135 320C123 333.3 84 346.7 75 360C66 373.3 87 386.7 94.5 400C102 413.3 96 426.7 93 440C90 453.3 90 466.7 87 480C84 493.3 78 506.7 84 520C90 533.3 108 546.7 106.5 560C105 573.3 84 586.7 73.5 593.3L63 600Z" fill="#ffffff"></path></svg>