<svg id="visual" viewBox="0 0 960 540" width="960" height="540" xmlns="http://www.w3.org/2000/svg" xmlns:xlink="http://www.w3.org/1999/xlink" version="1.1"><rect x="0" y="0" width="960" height="540" fill="#000000"></rect><defs><linearGradient id="grad1_0" x1="43.8%" y1="0%" x2="100%" y2="100%"><stop offset="14.444444444444446%" stop-color="#000000" stop-opacity="1"></stop><stop offset="85.55555555555554%" stop-color="#000000" stop-opacity="1"></stop></linearGradient></defs><defs><linearGradient id="grad2_0" x1="0%" y1="0%" x2="56.3%" y2="100%"><stop offset="14.444444444444446%" stop-color="#000000" stop-opacity="1"></stop><stop offset="85.55555555555554%" stop-color="#000000" stop-opacity="1"></stop></linearGradient></defs><g transform="translate(960, 0)"><path d="M0 486C-31.7 487.9 -63.5 489.8 -79.5 451C-95.6 412.3 -96 332.9 -112.9 310.1C-129.7 287.3 -163 321.3 -189 327.4C-215 333.4 -233.8 311.7 -234.6 279.6C-235.5 247.5 -218.4 205.1 -213 178.7C-207.6 152.3 -213.9 142 -239 138C-264.2 134 -308.1 136.3 -356.1 129.6C-404.2 123 -456.3 107.5 -478.6 84.4C-500.9 61.3 -493.5 30.7 -486 0L0 0Z" fill="#ff0000"></path></g><g transform="translate(0, 540)"><path d="M0 -486C25.9 -462.7 51.9 -439.3 72.1 -408.7C92.2 -378.1 106.7 -340.2 111.5 -306.3C116.3 -272.5 111.6 -242.8 155.5 -269.3C199.4 -295.9 291.9 -378.8 312.4 -372.3C332.9 -365.8 281.5 -270 268.9 -225.6C256.3 -181.2 282.4 -188.3 325.6 -188C368.8 -187.7 429.1 -179.9 430.4 -156.6C431.6 -133.4 373.8 -94.5 373.2 -65.8C372.7 -37.1 429.3 -18.6 486 0L0 0Z" fill="#ff0000"></path></g></svg>