<svg id="visual" viewBox="0 0 960 540" width="960" height="540" xmlns="http://www.w3.org/2000/svg" xmlns:xlink="http://www.w3.org/1999/xlink" version="1.1"><rect x="0" y="0" width="960" height="540" fill="#000000"></rect><defs><linearGradient id="grad1_0" x1="43.8%" y1="100%" x2="100%" y2="0%"><stop offset="14.444444444444446%" stop-color="#000000" stop-opacity="1"></stop><stop offset="85.55555555555554%" stop-color="#000000" stop-opacity="1"></stop></linearGradient></defs><defs><linearGradient id="grad2_0" x1="0%" y1="100%" x2="56.3%" y2="0%"><stop offset="14.444444444444446%" stop-color="#000000" stop-opacity="1"></stop><stop offset="85.55555555555554%" stop-color="#000000" stop-opacity="1"></stop></linearGradient></defs><g transform="translate(960, 540)"><path d="M-486 0C-442.3 -25.2 -398.6 -50.3 -358.5 -63.2C-318.3 -76.1 -281.6 -76.7 -302.6 -110.1C-323.5 -143.6 -402.1 -209.9 -390.6 -225.5C-379.1 -241.1 -277.6 -205.8 -229.8 -192.8C-182 -179.9 -187.9 -189.2 -203.8 -242.8C-219.6 -296.5 -245.4 -394.5 -220.5 -381.9C-195.6 -369.3 -120 -246.2 -94.1 -258.4C-68.1 -270.6 -91.8 -418.1 -84.4 -478.6C-77 -539.1 -38.5 -512.6 0 -486L0 0Z" fill="#ff0000"></path></g><g transform="translate(0, 0)"><path d="M486 0C457.7 24.5 429.4 48.9 409.7 72.2C389.9 95.5 378.7 117.7 345.8 125.9C313 134.1 258.5 128.3 244.2 141C229.9 153.7 255.8 184.8 281.9 236.5C308 288.3 334.2 360.7 312.4 372.3C290.6 383.9 220.6 334.8 175 303.1C129.4 271.5 108 257.3 92.3 253.7C76.7 250.1 66.9 256.9 52.4 297.4C38 337.9 19 411.9 0 486L0 0Z" fill="#ff0000"></path></g></svg>