<svg width="1440" height="1024" viewBox="0 0 1440 1024" fill="none" xmlns="http://www.w3.org/2000/svg">
<rect width="1440" height="1024" fill="#F5F5F5"/>
<rect width="1440" height="1024" fill="white"/>
<g clip-path="url(#clip0_0_1)">
<path d="M1029 212H129V812H1029V212Z" fill="black"/>
<path d="M129 398.647L258 387.471L386 380.765L515 384.118L643 403.118L772 421L900 383L1029 390.824V212H900H772H643H515H386H258H129V398.647Z" fill="#C22800"/>
<path d="M129 279.059L258 310.353L386 281.294L515 294.706L643 292.471L772 313.706L900 300.294L1029 281.294V212H900H772H643H515H386H258H129V279.059Z" fill="#D4F600"/>
<path d="M129 313.706L258 350.588L386 311.471L515 327.118L643 330.471L772 326L900 322.647L1029 326V212H900H772H643H515H386H258H129V313.706Z" fill="#D4F600"/>
<g opacity="0.5">
<path d="M129 421L258 396.04L386 337.802L515 394.377L643 351.113L772 421L900 387.721L1029 389.385V164.749H900H772H643H515H386H258H129V421Z" fill="#E41B00"/>
<path d="M129 358.457L258 381.701L386 350.708L515 346.281L643 323.036L772 366.205L900 328.57L1029 389.45V164.749H900H772H643H515H386H258H129V358.457Z" fill="#B12B00"/>
<path d="M129 316.17L258 337.802L386 334.474L515 287.883L643 332.81L772 312.842L900 334.474L1029 281.227V164.749H900H772H643H515H386H258H129V316.17Z" fill="#FF0404"/>
<path d="M139 301.093L268 284.453L396 356.004L525 307.749L653 299.429L782 341.028L910 307.749L1039 337.7V153H910H782H653H525H396H268H139V301.093Z" fill="#FD0000"/>
</g>
<g style="mix-blend-mode:overlay">
<path d="M129 308.996L258 278.685L386 298.892L515 288.788L643 323.141L772 278.685L900 300.913L1029 286.768V212H900H772H643H515H386H258H129V308.996Z" fill="#D32300"/>
</g>
<path d="M129 339.778L258 278.444L386 314.222L515 258L643 339.778L772 268.222L900 350L1029 334.667V212H900H772H643H515H386H258H129V339.778Z" fill="#F8B200"/>
<path d="M129 255L258 273L386 267L515 262L643 266L772 263L900 285L1029 258V212H900H772H643H515H386H258H129V255Z" fill="#E41B00"/>
<path d="M129 247.203L258 265.456L386 257.633L515 252.418L643 260.241L772 243.291L900 240.684L1029 245.899V212H900H772H643H515H386H258H129V247.203Z" fill="#C22800"/>
<path d="M129 290.476L258 308.256L386 301.512L515 286.798L643 313.774L772 312.548L900 289.25L1029 315V212H900H772H643H515H386H258H129V290.476Z" fill="#FF2A00"/>
</g>
<defs>
<clipPath id="clip0_0_1">
<rect width="900" height="600" fill="white" transform="translate(129 212)"/>
</clipPath>
</defs>
</svg>
